<svg xmlns="http://www.w3.org/2000/svg" xml:space="preserve" width="2000" height="128" data-id="lg_WXdqfRRQAdxHznkJhz" data-version="1"><g data-padding="20"><g transform="translate(10 2.278)scale(.96441)"><path fill="#d4ff00" d="M1244.622 70.347h-16.776l-8.388 14.508 8.388 14.508h16.776l8.352-14.508Zm-27.18-15.588h-16.776l-8.388 14.508 8.388 14.508h16.776l8.352-14.508Zm27.18-15.589h-16.776l-8.388 14.51 8.388 14.507h16.776l8.352-14.508Zm54.324 31.177h-16.74l-8.388 14.508 8.388 14.508h16.74l8.388-14.508Zm-27.18-15.588h-16.74l-8.388 14.508 8.388 14.508h16.74l8.388-14.508Zm27.18-15.589h-16.74l-8.388 14.51 8.388 14.507h16.74l8.388-14.508Zm-27.18 46.765h-16.74l-8.388 14.508 8.388 14.508h16.74l8.388-14.508Zm-7.488-70.452h3.132v21.78h-3.132Zm9.108.216v21.384a10.897 10.897 0 0 0 0-21.384"/><path fill="#d4ff00" d="m1284.978 25.095-1.98-1.116c.18.792.252 1.62.252 2.448s-.072 1.656-.252 2.448l1.98-1.116 2.268-1.296Zm-13.032-9.576c-.216 0-.432-.036-.684-.036h-2.448v21.78h2.448c.216 0 .468 0 .684-.036Zm-13.068-.036c-1.008 0-1.98.144-2.88.396l-3.6-3.708a1.03 1.03 0 0 0-.504-.288l-2.556-.684a1.106 1.106 0 0 0-1.332.756c-.144.576.18 1.152.756 1.332l2.268.612 2.772 2.88c-.504.252-.972.54-1.404.9l-4.248-2.556a1 1 0 0 0-.54-.144h-2.628a1.06 1.06 0 0 0-1.08 1.08c0 .612.468 1.08 1.08 1.08h2.34l3.456 2.088a10.8 10.8 0 0 0-2.772 7.236c.02 6.016 4.892 10.888 10.908 10.908h3.996V15.483Zm-5.22 10.224a1.768 1.768 0 1 1 .007-3.535 1.768 1.768 0 0 1-.007 3.535m20.7-24.444c3.96-2.232 8.604-1.476 10.368 1.692s0 7.524-3.96 9.72c-4.68 2.628-16.488 1.728-16.488 1.728s4.14-9.828 10.08-13.14"/><path fill="#d4ff00" d="M1263.27 14.007c.18-.432 4.356-10.224 10.548-13.68.216-.108.432-.216.612-.324-1.512 0-3.132.432-4.644 1.26-5.94 3.348-10.08 13.14-10.08 13.14s1.368.108 3.312.144Zm-61.164 92.232h3.132v21.78h-3.132Zm-5.94.18v21.384c-5.004-.972-8.784-5.4-8.784-10.692-.036-5.256 3.78-9.684 8.784-10.692m-11.592 9.396 1.98-1.116c-.18.792-.252 1.62-.252 2.448s.072 1.656.252 2.448l-1.98-1.116-2.268-1.296Zm12.996-9.576c.216 0 .432-.036.684-.036h2.448v21.78h-2.448c-.216 0-.468 0-.684-.036Zm9.072 0v21.78h3.996c6.016-.02 10.888-4.892 10.908-10.908 0-2.772-1.044-5.292-2.772-7.236l3.456-2.088h2.34a1.06 1.06 0 0 0 1.08-1.08 1.06 1.06 0 0 0-1.08-1.08h-2.628c-.18 0-.396.036-.54.144l-4.248 2.556c-.432-.324-.9-.612-1.404-.9l2.772-2.88 2.268-.612c.576-.144.9-.756.756-1.332s-.756-.9-1.332-.756l-2.556.684c-.18.036-.36.144-.504.288l-3.564 3.744a11 11 0 0 0-2.88-.396h-4.068Zm7.452 8.424a1.768 1.768 0 1 1 3.535.007 1.768 1.768 0 0 1-3.535-.007m-18.936-22.68c-3.96-2.232-8.604-1.476-10.368 1.692s0 7.524 3.96 9.72c4.68 2.628 16.488 1.728 16.488 1.728s-4.14-9.792-10.08-13.14"/><path fill="#d4ff00" d="M1206.246 104.727c-.18-.432-4.356-10.224-10.548-13.68-.216-.108-.432-.216-.612-.324 1.512 0 3.132.432 4.644 1.26 5.94 3.348 10.08 13.14 10.08 13.14s-1.368.108-3.312.144Z"/><rect width="398.33" height="77.97" x="401.701" y="-335.196" fill="none" rx="0" ry="0" transform="translate(327.96 372.24)scale(1.04)"/><path fill="#d4ff00" d="M770.26 86.73h-8.55l14.37-50.16h10.85l-.36 27.88-.57 8.99 3.31-8.99 11.78-27.88h11.28l-6.97 50.16h-8.84l4.68-28.31 2.44-12.29-4.6 12.29-11.93 28.31h-7.4V58.42l.79-12.51-2.88 12.51Zm58.73.87q-5.39 0-9.38-2.12t-6.18-5.97q-2.2-3.84-2.2-9.09 0-7.33 2.84-12.79t7.87-8.45q5.03-2.98 11.64-2.98 5.47 0 9.42 2.12t6.11 5.93q2.15 3.81 2.15 9.05 0 7.33-2.8 12.8-2.8 5.46-7.83 8.48t-11.64 3.02m.28-7.05q4.03 0 6.97-2.08 2.95-2.09 4.6-5.89 1.66-3.81 1.66-8.84 0-4.82-2.52-7.66-2.51-2.84-6.61-2.84-4.03 0-7.01 2.09-2.98 2.08-4.67 5.85-1.69 3.78-1.69 8.88 0 3.09 1.15 5.43 1.15 2.33 3.27 3.7 2.12 1.36 4.85 1.36m46.21 6.18h-9.77l-6.61-39.67h8.62l3.52 22.64.72 9.34 4.74-9.34 13.08-22.64h9.13Zm43.19 0h-8.55l8.41-39.67h8.62Zm13.44 0h-36l1.51-6.97h36Zm-10.78-32.7h-13.15l1.51-6.97h13.15Zm7.69-13.29h-9.41l1.87-8.77h9.41Zm30.97 46.86q-5.32 0-9.38-2.12t-6.36-6.01q-2.3-3.88-2.3-9.12 0-5.1 1.54-9.49 1.55-4.38 4.42-7.69 2.88-3.3 7.05-5.14 4.16-1.83 9.48-1.83 6.11 0 10.24 2.55t5.82 7.19q1.69 4.63.54 10.96h-32.12l1.36-6.18h22.5q.07-3.45-2.16-5.54-2.23-2.08-6.54-2.08-4.81 0-7.76 2.44-2.95 2.45-4.27 6.29-1.33 3.85-1.33 8.09 0 3.23 1.18 5.6 1.19 2.37 3.41 3.7 2.23 1.33 5.18 1.33 4.81 0 7.62-2.08 2.8-2.09 3.73-5.32h8.63q-1.3 4.38-3.92 7.65t-6.72 5.03q-4.09 1.77-9.84 1.77m60.51-.87h-9.06l10.71-50.16h8.98Zm-29.4 0h-9.05l10.71-50.16h8.98Zm26.09-22.2H994.7l1.65-7.55h22.49Zm32.13 22.2h-8.56l8.41-39.67h8.63Zm13.43 0h-36l1.51-6.97h36Zm-10.78-32.7h-13.15l1.51-6.97h13.15Zm7.69-13.29h-9.41l1.87-8.77h9.41Zm33.56 45.99h-9.77l-6.61-39.67h8.62l3.52 22.64.72 9.34 4.75-9.34 13.08-22.64h9.12Zm40.97.87q-5.32 0-9.38-2.12t-6.36-6.01q-2.3-3.88-2.3-9.12 0-5.1 1.55-9.49 1.54-4.38 4.41-7.69 2.88-3.3 7.05-5.14 4.17-1.83 9.48-1.83 6.11 0 10.24 2.55 4.14 2.55 5.83 7.19 1.68 4.63.53 10.96h-32.12l1.37-6.18h22.49q.07-3.45-2.16-5.54-2.22-2.08-6.54-2.08-4.81 0-7.76 2.44-2.94 2.45-4.27 6.29-1.33 3.85-1.33 8.09 0 3.23 1.18 5.6 1.19 2.37 3.42 3.7 2.22 1.33 5.17 1.33 4.82 0 7.62-2.08 2.8-2.09 3.74-5.32h8.62q-1.29 4.38-3.92 7.65-2.62 3.27-6.72 5.03-4.09 1.77-9.84 1.77"/></g><path fill="transparent" stroke="transparent" d="M719 0h562v128H719z"/></g></svg>